# xmcd
#
# Track frame offsets: 
#        150
#        18509
#        36230
#        54344
#        72423
#        88822
#        106751
#        126126
#        142952
#        160741
#        177792
#        196334
#
# Disc length: 2855 seconds
#
# Revision: 2
# Processed by: cddbd v1.5.2PL0 Copyright (c) Steve Scherf et al.
# Submitted via: ExactAudioCopy v1.0b1
#
DISCID=9c0b250c
DTITLE=Carolyn Dawn Johnson - Love and Negotiation
DYEAR=2006
DGENRE=Country
TTITLE0=Love and Negotiation
TTITLE1=Taking Back My Brave
TTITLE2=Got A Good Day
TTITLE3=Thinkin' Things
TTITLE4=Everybody's Favourite
TTITLE5=Dreaming Without You
TTITLE6=Crybaby
TTITLE7=Little Breakdowns
TTITLE8=All You Need To Know
TTITLE9=Into You
TTITLE10=Nothing Good About Lonely
TTITLE11=Got There First
EXTD=
EXTT0=
EXTT1=
EXTT2=
EXTT3=
EXTT4=
EXTT5=
EXTT6=
EXTT7=
EXTT8=
EXTT9=
EXTT10=
EXTT11=
PLAYORDER=
